%TF.GenerationSoftware,KiCad,Pcbnew,7.0.2*%
%TF.CreationDate,2023-05-09T10:18:56-04:00*%
%TF.ProjectId,port_alt,706f7274-5f61-46c7-942e-6b696361645f,rev?*%
%TF.SameCoordinates,Original*%
%TF.FileFunction,Copper,L2,Bot*%
%TF.FilePolarity,Positive*%
%FSLAX46Y46*%
G04 Gerber Fmt 4.6, Leading zero omitted, Abs format (unit mm)*
G04 Created by KiCad (PCBNEW 7.0.2) date 2023-05-09 10:18:56*
%MOMM*%
%LPD*%
G01*
G04 APERTURE LIST*
%TA.AperFunction,ComponentPad*%
%ADD10O,2.844800X1.422400*%
%TD*%
%TA.AperFunction,ComponentPad*%
%ADD11R,1.600000X1.600000*%
%TD*%
%TA.AperFunction,ComponentPad*%
%ADD12C,1.600000*%
%TD*%
%TA.AperFunction,ComponentPad*%
%ADD13O,1.600000X1.600000*%
%TD*%
%TA.AperFunction,Conductor*%
%ADD14C,0.250000*%
%TD*%
G04 APERTURE END LIST*
D10*
%TO.P,U3,3V3,3.3V*%
%TO.N,Net-(U3-3.3V)*%
X104300000Y-90775000D03*
%TO.P,U3,EN,EN*%
%TO.N,unconnected-(U3-PadEN)*%
X104300000Y-93315000D03*
%TO.P,U3,GND@1,GND@1*%
%TO.N,unconnected-(U3-PadGND@1)*%
X104300000Y-123795000D03*
%TO.P,U3,GND@2,GND@2*%
%TO.N,/GND*%
X129700000Y-90775000D03*
%TO.P,U3,GND@3,GND@3*%
%TO.N,Net-(U1-K)*%
X129700000Y-106015000D03*
%TO.P,U3,GPIO0,GPIO0*%
%TO.N,unconnected-(U3-PadGPIO0)*%
X129700000Y-123795000D03*
%TO.P,U3,GPIO2,GPIO2*%
%TO.N,unconnected-(U3-PadGPIO2)*%
X129700000Y-126335000D03*
%TO.P,U3,GPIO4,GPIO4*%
%TO.N,unconnected-(U3-PadGPIO4)*%
X129700000Y-121255000D03*
%TO.P,U3,GPIO5,GPIO5*%
%TO.N,unconnected-(U3-PadGPIO5)*%
X129700000Y-113635000D03*
%TO.P,U3,GPIO6,GPIO6*%
%TO.N,unconnected-(U3-PadGPIO6)*%
X129700000Y-136495000D03*
%TO.P,U3,GPIO7,GPIO7*%
%TO.N,unconnected-(U3-PadGPIO7)*%
X129700000Y-133955000D03*
%TO.P,U3,GPIO8,GPIO8*%
%TO.N,unconnected-(U3-PadGPIO8)*%
X129700000Y-131415000D03*
%TO.P,U3,GPIO9,GPIO9*%
%TO.N,unconnected-(U3-PadGPIO9)*%
X104300000Y-128875000D03*
%TO.P,U3,GPIO10,GPIO10*%
%TO.N,unconnected-(U3-PadGPIO10)*%
X104300000Y-131415000D03*
%TO.P,U3,GPIO11,GPIO11*%
%TO.N,unconnected-(U3-PadGPIO11)*%
X104300000Y-133955000D03*
%TO.P,U3,GPIO12,GPIO12*%
%TO.N,unconnected-(U3-PadGPIO12)*%
X104300000Y-121255000D03*
%TO.P,U3,GPIO13,GPIO13*%
%TO.N,unconnected-(U3-PadGPIO13)*%
X104300000Y-126335000D03*
%TO.P,U3,GPIO14,GPIO14*%
%TO.N,unconnected-(U3-PadGPIO14)*%
X104300000Y-118715000D03*
%TO.P,U3,GPIO15,GPIO15*%
%TO.N,Net-(U1-D7)*%
X129700000Y-128875000D03*
%TO.P,U3,GPIO16,GPIO16*%
%TO.N,Net-(U1-D6)*%
X129700000Y-118715000D03*
%TO.P,U3,GPIO17,GPIO17*%
%TO.N,Net-(U1-D5)*%
X129700000Y-116175000D03*
%TO.P,U3,GPIO18,GPIO18*%
%TO.N,Net-(U1-D4)*%
X129700000Y-111095000D03*
%TO.P,U3,GPIO19,GPIO19*%
%TO.N,Net-(U1-RS)*%
X129700000Y-108555000D03*
%TO.P,U3,GPIO21,GPIO21*%
%TO.N,Net-(U2-SDI)*%
X129700000Y-103475000D03*
%TO.P,U3,GPIO22,GPIO22*%
%TO.N,Net-(U2-SCK)*%
X129700000Y-95855000D03*
%TO.P,U3,GPIO23,GPIO23*%
%TO.N,Net-(U1-E)*%
X129700000Y-93315000D03*
%TO.P,U3,GPIO25,GPIO25*%
%TO.N,unconnected-(U3-PadGPIO25)*%
X104300000Y-111095000D03*
%TO.P,U3,GPIO26,GPIO26*%
%TO.N,unconnected-(U3-PadGPIO26)*%
X104300000Y-113635000D03*
%TO.P,U3,GPIO27,GPIO27*%
%TO.N,unconnected-(U3-PadGPIO27)*%
X104300000Y-116175000D03*
%TO.P,U3,GPIO32,GPIO32*%
%TO.N,Net-(U5-SPST2)*%
X104300000Y-106015000D03*
%TO.P,U3,GPIO33,GPIO33*%
%TO.N,unconnected-(U3-PadGPIO33)*%
X104300000Y-108555000D03*
%TO.P,U3,GPIO34,GPIO34*%
%TO.N,unconnected-(U3-PadGPIO34)*%
X104300000Y-100935000D03*
%TO.P,U3,GPIO35,GPIO35*%
%TO.N,unconnected-(U3-PadGPIO35)*%
X104300000Y-103475000D03*
%TO.P,U3,GPIO36,GPIO36*%
%TO.N,unconnected-(U3-PadGPIO36)*%
X104300000Y-95855000D03*
%TO.P,U3,GPIO39,GPIO39*%
%TO.N,unconnected-(U3-PadGPIO39)*%
X104300000Y-98395000D03*
%TO.P,U3,RX0,RX0*%
%TO.N,unconnected-(U3-PadRX0)*%
X129700000Y-100935000D03*
%TO.P,U3,TX0,TX0*%
%TO.N,unconnected-(U3-PadTX0)*%
X129700000Y-98395000D03*
%TO.P,U3,VIN,VIN*%
%TO.N,/5V*%
X104300000Y-136495000D03*
%TD*%
D11*
%TO.P,U1,1,vss*%
%TO.N,/GND*%
X152000000Y-98000000D03*
D12*
%TO.P,U1,2,vdd*%
%TO.N,/5V*%
X152000000Y-100540000D03*
%TO.P,U1,3,v0*%
%TO.N,/V0*%
X152000000Y-103080000D03*
%TO.P,U1,4,RS*%
%TO.N,Net-(U1-RS)*%
X152000000Y-105620000D03*
%TO.P,U1,5,RW*%
%TO.N,/GND*%
X152000000Y-108160000D03*
%TO.P,U1,6,E*%
%TO.N,Net-(U1-E)*%
X152000000Y-110700000D03*
%TO.P,U1,7,D0*%
%TO.N,unconnected-(U1-D0-Pad7)*%
X152000000Y-113240000D03*
%TO.P,U1,8,D1*%
%TO.N,unconnected-(U1-D1-Pad8)*%
X152000000Y-115780000D03*
%TO.P,U1,9,D2*%
%TO.N,unconnected-(U1-D2-Pad9)*%
X152000000Y-118320000D03*
%TO.P,U1,10,D3*%
%TO.N,unconnected-(U1-D3-Pad10)*%
X152000000Y-120860000D03*
%TO.P,U1,11,D4*%
%TO.N,Net-(U1-D4)*%
X152000000Y-123400000D03*
%TO.P,U1,12,D5*%
%TO.N,Net-(U1-D5)*%
X152000000Y-125940000D03*
%TO.P,U1,13,D6*%
%TO.N,Net-(U1-D6)*%
X152000000Y-128480000D03*
%TO.P,U1,14,D7*%
%TO.N,Net-(U1-D7)*%
X152000000Y-131020000D03*
%TO.P,U1,15,A*%
%TO.N,/5V*%
X152000000Y-133560000D03*
%TO.P,U1,16,K*%
%TO.N,Net-(U1-K)*%
X152000000Y-136100000D03*
%TD*%
%TO.P,U6,1,R1*%
%TO.N,/5V*%
X135000000Y-72240000D03*
D13*
%TO.P,U6,2,R2*%
%TO.N,/V0*%
X135000000Y-62080000D03*
%TD*%
D12*
%TO.P,U2,1,VIN*%
%TO.N,/5V*%
X101920000Y-75000000D03*
%TO.P,U2,2,3VO*%
%TO.N,unconnected-(U2-3VO-Pad2)*%
X104460000Y-75000000D03*
%TO.P,U2,3,GND*%
%TO.N,/GND*%
X107000000Y-75000000D03*
%TO.P,U2,4,SCK*%
%TO.N,Net-(U2-SCK)*%
X109540000Y-75000000D03*
%TO.P,U2,5,SDO*%
%TO.N,unconnected-(U2-SDO-Pad5)*%
X112080000Y-75000000D03*
%TO.P,U2,6,SDI*%
%TO.N,Net-(U2-SDI)*%
X114620000Y-75000000D03*
%TO.P,U2,7,CS*%
%TO.N,unconnected-(U2-CS-Pad7)*%
X117160000Y-75000000D03*
%TD*%
%TO.P,U5,1,SPST1*%
%TO.N,Net-(U3-3.3V)*%
X94000000Y-93920000D03*
D13*
%TO.P,U5,2,SPST2*%
%TO.N,Net-(U5-SPST2)*%
X94000000Y-104080000D03*
%TD*%
D14*
%TO.N,/5V*%
X153125000Y-132435000D02*
X152000000Y-133560000D01*
X152395000Y-127284009D02*
X153125000Y-128014009D01*
X149284009Y-127284009D02*
X152395000Y-127284009D01*
X152000000Y-100540000D02*
X149284009Y-103255991D01*
X149284009Y-103255991D02*
X149284009Y-127284009D01*
X153125000Y-128014009D02*
X153125000Y-132435000D01*
%TO.N,/GND*%
X153125000Y-107035000D02*
X152000000Y-108160000D01*
X153125000Y-99125000D02*
X153125000Y-107035000D01*
X152000000Y-98000000D02*
X153125000Y-99125000D01*
X144775000Y-90775000D02*
X152000000Y-98000000D01*
X129700000Y-90775000D02*
X144775000Y-90775000D01*
%TD*%
M02*
