%TF.GenerationSoftware,KiCad,Pcbnew,7.0.2*%
%TF.CreationDate,2023-05-09T10:18:56-04:00*%
%TF.ProjectId,port_alt,706f7274-5f61-46c7-942e-6b696361645f,rev?*%
%TF.SameCoordinates,Original*%
%TF.FileFunction,Legend,Top*%
%TF.FilePolarity,Positive*%
%FSLAX46Y46*%
G04 Gerber Fmt 4.6, Leading zero omitted, Abs format (unit mm)*
G04 Created by KiCad (PCBNEW 7.0.2) date 2023-05-09 10:18:56*
%MOMM*%
%LPD*%
G01*
G04 APERTURE LIST*
%ADD10C,0.150000*%
%ADD11C,0.100000*%
%ADD12C,0.120000*%
G04 APERTURE END LIST*
D10*
%TO.C,REF\u002A\u002A*%
X97666666Y-142962619D02*
X97333333Y-142486428D01*
X97095238Y-142962619D02*
X97095238Y-141962619D01*
X97095238Y-141962619D02*
X97476190Y-141962619D01*
X97476190Y-141962619D02*
X97571428Y-142010238D01*
X97571428Y-142010238D02*
X97619047Y-142057857D01*
X97619047Y-142057857D02*
X97666666Y-142153095D01*
X97666666Y-142153095D02*
X97666666Y-142295952D01*
X97666666Y-142295952D02*
X97619047Y-142391190D01*
X97619047Y-142391190D02*
X97571428Y-142438809D01*
X97571428Y-142438809D02*
X97476190Y-142486428D01*
X97476190Y-142486428D02*
X97095238Y-142486428D01*
X98095238Y-142438809D02*
X98428571Y-142438809D01*
X98571428Y-142962619D02*
X98095238Y-142962619D01*
X98095238Y-142962619D02*
X98095238Y-141962619D01*
X98095238Y-141962619D02*
X98571428Y-141962619D01*
X99333333Y-142438809D02*
X99000000Y-142438809D01*
X99000000Y-142962619D02*
X99000000Y-141962619D01*
X99000000Y-141962619D02*
X99476190Y-141962619D01*
X100000000Y-141962619D02*
X100000000Y-142200714D01*
X99761905Y-142105476D02*
X100000000Y-142200714D01*
X100000000Y-142200714D02*
X100238095Y-142105476D01*
X99857143Y-142391190D02*
X100000000Y-142200714D01*
X100000000Y-142200714D02*
X100142857Y-142391190D01*
X100761905Y-141962619D02*
X100761905Y-142200714D01*
X100523810Y-142105476D02*
X100761905Y-142200714D01*
X100761905Y-142200714D02*
X101000000Y-142105476D01*
X100619048Y-142391190D02*
X100761905Y-142200714D01*
X100761905Y-142200714D02*
X100904762Y-142391190D01*
X182666666Y-143962619D02*
X182333333Y-143486428D01*
X182095238Y-143962619D02*
X182095238Y-142962619D01*
X182095238Y-142962619D02*
X182476190Y-142962619D01*
X182476190Y-142962619D02*
X182571428Y-143010238D01*
X182571428Y-143010238D02*
X182619047Y-143057857D01*
X182619047Y-143057857D02*
X182666666Y-143153095D01*
X182666666Y-143153095D02*
X182666666Y-143295952D01*
X182666666Y-143295952D02*
X182619047Y-143391190D01*
X182619047Y-143391190D02*
X182571428Y-143438809D01*
X182571428Y-143438809D02*
X182476190Y-143486428D01*
X182476190Y-143486428D02*
X182095238Y-143486428D01*
X183095238Y-143438809D02*
X183428571Y-143438809D01*
X183571428Y-143962619D02*
X183095238Y-143962619D01*
X183095238Y-143962619D02*
X183095238Y-142962619D01*
X183095238Y-142962619D02*
X183571428Y-142962619D01*
X184333333Y-143438809D02*
X184000000Y-143438809D01*
X184000000Y-143962619D02*
X184000000Y-142962619D01*
X184000000Y-142962619D02*
X184476190Y-142962619D01*
X185000000Y-142962619D02*
X185000000Y-143200714D01*
X184761905Y-143105476D02*
X185000000Y-143200714D01*
X185000000Y-143200714D02*
X185238095Y-143105476D01*
X184857143Y-143391190D02*
X185000000Y-143200714D01*
X185000000Y-143200714D02*
X185142857Y-143391190D01*
X185761905Y-142962619D02*
X185761905Y-143200714D01*
X185523810Y-143105476D02*
X185761905Y-143200714D01*
X185761905Y-143200714D02*
X186000000Y-143105476D01*
X185619048Y-143391190D02*
X185761905Y-143200714D01*
X185761905Y-143200714D02*
X185904762Y-143391190D01*
%TO.C,U3*%
X111234333Y-127487666D02*
X111234333Y-128621000D01*
X111234333Y-128621000D02*
X111301000Y-128754333D01*
X111301000Y-128754333D02*
X111367666Y-128821000D01*
X111367666Y-128821000D02*
X111501000Y-128887666D01*
X111501000Y-128887666D02*
X111767666Y-128887666D01*
X111767666Y-128887666D02*
X111901000Y-128821000D01*
X111901000Y-128821000D02*
X111967666Y-128754333D01*
X111967666Y-128754333D02*
X112034333Y-128621000D01*
X112034333Y-128621000D02*
X112034333Y-127487666D01*
X112567667Y-127487666D02*
X113434333Y-127487666D01*
X113434333Y-127487666D02*
X112967667Y-128021000D01*
X112967667Y-128021000D02*
X113167667Y-128021000D01*
X113167667Y-128021000D02*
X113301000Y-128087666D01*
X113301000Y-128087666D02*
X113367667Y-128154333D01*
X113367667Y-128154333D02*
X113434333Y-128287666D01*
X113434333Y-128287666D02*
X113434333Y-128621000D01*
X113434333Y-128621000D02*
X113367667Y-128754333D01*
X113367667Y-128754333D02*
X113301000Y-128821000D01*
X113301000Y-128821000D02*
X113167667Y-128887666D01*
X113167667Y-128887666D02*
X112767667Y-128887666D01*
X112767667Y-128887666D02*
X112634333Y-128821000D01*
X112634333Y-128821000D02*
X112567667Y-128754333D01*
%TO.C,U6*%
X132092619Y-67921904D02*
X132902142Y-67921904D01*
X132902142Y-67921904D02*
X132997380Y-67874285D01*
X132997380Y-67874285D02*
X133045000Y-67826666D01*
X133045000Y-67826666D02*
X133092619Y-67731428D01*
X133092619Y-67731428D02*
X133092619Y-67540952D01*
X133092619Y-67540952D02*
X133045000Y-67445714D01*
X133045000Y-67445714D02*
X132997380Y-67398095D01*
X132997380Y-67398095D02*
X132902142Y-67350476D01*
X132902142Y-67350476D02*
X132092619Y-67350476D01*
X132092619Y-66445714D02*
X132092619Y-66636190D01*
X132092619Y-66636190D02*
X132140238Y-66731428D01*
X132140238Y-66731428D02*
X132187857Y-66779047D01*
X132187857Y-66779047D02*
X132330714Y-66874285D01*
X132330714Y-66874285D02*
X132521190Y-66921904D01*
X132521190Y-66921904D02*
X132902142Y-66921904D01*
X132902142Y-66921904D02*
X132997380Y-66874285D01*
X132997380Y-66874285D02*
X133045000Y-66826666D01*
X133045000Y-66826666D02*
X133092619Y-66731428D01*
X133092619Y-66731428D02*
X133092619Y-66540952D01*
X133092619Y-66540952D02*
X133045000Y-66445714D01*
X133045000Y-66445714D02*
X132997380Y-66398095D01*
X132997380Y-66398095D02*
X132902142Y-66350476D01*
X132902142Y-66350476D02*
X132664047Y-66350476D01*
X132664047Y-66350476D02*
X132568809Y-66398095D01*
X132568809Y-66398095D02*
X132521190Y-66445714D01*
X132521190Y-66445714D02*
X132473571Y-66540952D01*
X132473571Y-66540952D02*
X132473571Y-66731428D01*
X132473571Y-66731428D02*
X132521190Y-66826666D01*
X132521190Y-66826666D02*
X132568809Y-66874285D01*
X132568809Y-66874285D02*
X132664047Y-66921904D01*
%TO.C,REF\u002A\u002A*%
X182666666Y-51962619D02*
X182333333Y-51486428D01*
X182095238Y-51962619D02*
X182095238Y-50962619D01*
X182095238Y-50962619D02*
X182476190Y-50962619D01*
X182476190Y-50962619D02*
X182571428Y-51010238D01*
X182571428Y-51010238D02*
X182619047Y-51057857D01*
X182619047Y-51057857D02*
X182666666Y-51153095D01*
X182666666Y-51153095D02*
X182666666Y-51295952D01*
X182666666Y-51295952D02*
X182619047Y-51391190D01*
X182619047Y-51391190D02*
X182571428Y-51438809D01*
X182571428Y-51438809D02*
X182476190Y-51486428D01*
X182476190Y-51486428D02*
X182095238Y-51486428D01*
X183095238Y-51438809D02*
X183428571Y-51438809D01*
X183571428Y-51962619D02*
X183095238Y-51962619D01*
X183095238Y-51962619D02*
X183095238Y-50962619D01*
X183095238Y-50962619D02*
X183571428Y-50962619D01*
X184333333Y-51438809D02*
X184000000Y-51438809D01*
X184000000Y-51962619D02*
X184000000Y-50962619D01*
X184000000Y-50962619D02*
X184476190Y-50962619D01*
X185000000Y-50962619D02*
X185000000Y-51200714D01*
X184761905Y-51105476D02*
X185000000Y-51200714D01*
X185000000Y-51200714D02*
X185238095Y-51105476D01*
X184857143Y-51391190D02*
X185000000Y-51200714D01*
X185000000Y-51200714D02*
X185142857Y-51391190D01*
X185761905Y-50962619D02*
X185761905Y-51200714D01*
X185523810Y-51105476D02*
X185761905Y-51200714D01*
X185761905Y-51200714D02*
X186000000Y-51105476D01*
X185619048Y-51391190D02*
X185761905Y-51200714D01*
X185761905Y-51200714D02*
X185904762Y-51391190D01*
X95666666Y-52962619D02*
X95333333Y-52486428D01*
X95095238Y-52962619D02*
X95095238Y-51962619D01*
X95095238Y-51962619D02*
X95476190Y-51962619D01*
X95476190Y-51962619D02*
X95571428Y-52010238D01*
X95571428Y-52010238D02*
X95619047Y-52057857D01*
X95619047Y-52057857D02*
X95666666Y-52153095D01*
X95666666Y-52153095D02*
X95666666Y-52295952D01*
X95666666Y-52295952D02*
X95619047Y-52391190D01*
X95619047Y-52391190D02*
X95571428Y-52438809D01*
X95571428Y-52438809D02*
X95476190Y-52486428D01*
X95476190Y-52486428D02*
X95095238Y-52486428D01*
X96095238Y-52438809D02*
X96428571Y-52438809D01*
X96571428Y-52962619D02*
X96095238Y-52962619D01*
X96095238Y-52962619D02*
X96095238Y-51962619D01*
X96095238Y-51962619D02*
X96571428Y-51962619D01*
X97333333Y-52438809D02*
X97000000Y-52438809D01*
X97000000Y-52962619D02*
X97000000Y-51962619D01*
X97000000Y-51962619D02*
X97476190Y-51962619D01*
X98000000Y-51962619D02*
X98000000Y-52200714D01*
X97761905Y-52105476D02*
X98000000Y-52200714D01*
X98000000Y-52200714D02*
X98238095Y-52105476D01*
X97857143Y-52391190D02*
X98000000Y-52200714D01*
X98000000Y-52200714D02*
X98142857Y-52391190D01*
X98761905Y-51962619D02*
X98761905Y-52200714D01*
X98523810Y-52105476D02*
X98761905Y-52200714D01*
X98761905Y-52200714D02*
X99000000Y-52105476D01*
X98619048Y-52391190D02*
X98761905Y-52200714D01*
X98761905Y-52200714D02*
X98904762Y-52391190D01*
%TO.C,U5*%
X95832619Y-99761904D02*
X96642142Y-99761904D01*
X96642142Y-99761904D02*
X96737380Y-99714285D01*
X96737380Y-99714285D02*
X96785000Y-99666666D01*
X96785000Y-99666666D02*
X96832619Y-99571428D01*
X96832619Y-99571428D02*
X96832619Y-99380952D01*
X96832619Y-99380952D02*
X96785000Y-99285714D01*
X96785000Y-99285714D02*
X96737380Y-99238095D01*
X96737380Y-99238095D02*
X96642142Y-99190476D01*
X96642142Y-99190476D02*
X95832619Y-99190476D01*
X95832619Y-98238095D02*
X95832619Y-98714285D01*
X95832619Y-98714285D02*
X96308809Y-98761904D01*
X96308809Y-98761904D02*
X96261190Y-98714285D01*
X96261190Y-98714285D02*
X96213571Y-98619047D01*
X96213571Y-98619047D02*
X96213571Y-98380952D01*
X96213571Y-98380952D02*
X96261190Y-98285714D01*
X96261190Y-98285714D02*
X96308809Y-98238095D01*
X96308809Y-98238095D02*
X96404047Y-98190476D01*
X96404047Y-98190476D02*
X96642142Y-98190476D01*
X96642142Y-98190476D02*
X96737380Y-98238095D01*
X96737380Y-98238095D02*
X96785000Y-98285714D01*
X96785000Y-98285714D02*
X96832619Y-98380952D01*
X96832619Y-98380952D02*
X96832619Y-98619047D01*
X96832619Y-98619047D02*
X96785000Y-98714285D01*
X96785000Y-98714285D02*
X96737380Y-98761904D01*
D11*
%TO.C,U1*%
X149460000Y-59900000D02*
X185020000Y-59900000D01*
X185020000Y-59900000D02*
X185020000Y-141180000D01*
X185020000Y-141180000D02*
X149460000Y-141180000D01*
X149460000Y-141180000D02*
X149460000Y-59900000D01*
D12*
%TO.C,U6*%
X135000000Y-71200000D02*
X135000000Y-70430000D01*
X133630000Y-70430000D02*
X136370000Y-70430000D01*
X136370000Y-70430000D02*
X136370000Y-63890000D01*
X133630000Y-63890000D02*
X133630000Y-70430000D01*
X136370000Y-63890000D02*
X133630000Y-63890000D01*
X135000000Y-63120000D02*
X135000000Y-63890000D01*
D11*
%TO.C,U2*%
X96840000Y-77540000D02*
X122240000Y-77540000D01*
X122240000Y-77540000D02*
X122240000Y-62300000D01*
X122240000Y-62300000D02*
X96840000Y-62300000D01*
X96840000Y-62300000D02*
X96840000Y-77540000D01*
D12*
%TO.C,U5*%
X94000000Y-94960000D02*
X94000000Y-95730000D01*
X95370000Y-95730000D02*
X92630000Y-95730000D01*
X92630000Y-95730000D02*
X92630000Y-102270000D01*
X95370000Y-102270000D02*
X95370000Y-95730000D01*
X92630000Y-102270000D02*
X95370000Y-102270000D01*
X94000000Y-103040000D02*
X94000000Y-102270000D01*
%TD*%
M02*
