M48
; DRILL file {KiCad 7.0.2} date Tue May  9 10:19:03 2023
; FORMAT={-:-/ absolute / inch / decimal}
; #@! TF.CreationDate,2023-05-09T10:19:03-04:00
; #@! TF.GenerationSoftware,Kicad,Pcbnew,7.0.2
; #@! TF.FileFunction,Plated,1,2,PTH
FMAT,2
INCH
; #@! TA.AperFunction,Plated,PTH,ComponentDrill
T1C0.0315
; #@! TA.AperFunction,Plated,PTH,ComponentDrill
T2C0.0354
%
G90
G05
T1
X3.7008Y-3.6976
X3.7008Y-4.0976
X4.0126Y-2.9528
X4.1126Y-2.9528
X4.2126Y-2.9528
X4.3126Y-2.9528
X4.4126Y-2.9528
X4.5126Y-2.9528
X4.6126Y-2.9528
X5.315Y-2.4441
X5.315Y-2.8441
X5.9843Y-3.8583
X5.9843Y-3.9583
X5.9843Y-4.0583
X5.9843Y-4.1583
X5.9843Y-4.2583
X5.9843Y-4.3583
X5.9843Y-4.4583
X5.9843Y-4.5583
X5.9843Y-4.6583
X5.9843Y-4.7583
X5.9843Y-4.8583
X5.9843Y-4.9583
X5.9843Y-5.0583
X5.9843Y-5.1583
X5.9843Y-5.2583
X5.9843Y-5.3583
T2
X4.1063Y-3.5738
X4.1063Y-3.6738
X4.1063Y-3.7738
X4.1063Y-3.8738
X4.1063Y-3.9738
X4.1063Y-4.0738
X4.1063Y-4.1738
X4.1063Y-4.2738
X4.1063Y-4.3738
X4.1063Y-4.4738
X4.1063Y-4.5738
X4.1063Y-4.6738
X4.1063Y-4.7738
X4.1063Y-4.8738
X4.1063Y-4.9738
X4.1063Y-5.0738
X4.1063Y-5.1738
X4.1063Y-5.2738
X4.1063Y-5.3738
X5.1063Y-3.5738
X5.1063Y-3.6738
X5.1063Y-3.7738
X5.1063Y-3.8738
X5.1063Y-3.9738
X5.1063Y-4.0738
X5.1063Y-4.1738
X5.1063Y-4.2738
X5.1063Y-4.3738
X5.1063Y-4.4738
X5.1063Y-4.5738
X5.1063Y-4.6738
X5.1063Y-4.7738
X5.1063Y-4.8738
X5.1063Y-4.9738
X5.1063Y-5.0738
X5.1063Y-5.1738
X5.1063Y-5.2738
X5.1063Y-5.3738
T0
M30
